<?xml version="1.0" standalone="no"?>
<!DOCTYPE svg PUBLIC "-//W3C//DTD SVG 20010904//EN"
 "http://www.w3.org/TR/2001/REC-SVG-20010904/DTD/svg10.dtd">
<svg version="1.0" xmlns="http://www.w3.org/2000/svg"
 width="100.000000pt" height="100.000000pt" viewBox="0 0 100.000000 100.000000"
 preserveAspectRatio="xMidYMid meet">

<g transform="translate(0.000000,100.000000) scale(0.100000,-0.100000)"
fill="#000000" stroke="none">
<path d="M337 752 c-19 -21 -22 -42 -6 -42 11 0 48 40 49 53 0 14 -27 7 -43
-11z"/>
<path d="M620 762 c0 -10 43 -52 53 -52 14 0 7 27 -11 43 -20 18 -42 22 -42 9z"/>
<path d="M364 719 c-4 -7 3 -20 19 -31 56 -41 59 -132 6 -192 -38 -43 -20 -59
21 -18 51 52 129 52 180 0 41 -41 59 -25 21 18 -53 60 -50 151 6 192 16 11 23
24 19 31 -5 8 -18 3 -41 -18 -38 -33 -81 -46 -126 -36 -17 4 -46 20 -64 36
-23 21 -36 26 -41 18z"/>
<path d="M320 456 c0 -19 27 -46 46 -46 20 0 17 12 -10 38 -28 26 -36 28 -36
8z"/>
<path d="M643 446 c-27 -28 -29 -36 -9 -36 19 0 46 27 46 46 0 20 -12 17 -37
-10z"/>
<path d="M445 345 c-29 -28 -32 -61 -10 -93 13 -17 24 -21 60 -20 47 2 57 13
51 53 -4 25 -56 35 -56 11 0 -9 5 -16 10 -16 6 0 10 -5 10 -11 0 -6 -10 -9
-22 -7 -16 2 -24 11 -26 29 -4 31 23 58 40 41 17 -17 38 -15 38 3 0 16 -30 35
-55 35 -9 0 -27 -11 -40 -25z"/>
<path d="M200 295 l0 -65 45 0 c33 0 45 4 45 15 0 10 -10 15 -30 15 -29 0 -30
1 -30 50 0 38 -4 50 -15 50 -12 0 -15 -14 -15 -65z"/>
<path d="M310 295 l0 -65 45 0 c33 0 45 4 45 15 0 9 -9 15 -24 15 -14 0 -28 5
-31 10 -4 6 7 10 24 10 21 0 31 5 31 15 0 9 -9 15 -24 15 -14 0 -28 5 -31 10
-4 6 7 10 24 10 21 0 31 5 31 15 0 11 -12 15 -45 15 l-45 0 0 -65z"/>
<path d="M587 307 c-9 -30 -17 -59 -17 -65 0 -17 27 -15 34 3 3 8 15 15 26 15
11 0 23 -7 26 -15 7 -18 34 -20 34 -3 0 6 -8 35 -17 65 -15 46 -20 53 -43 53
-23 0 -28 -7 -43 -53z m53 -7 c0 -11 -4 -20 -10 -20 -5 0 -10 9 -10 20 0 11 5
20 10 20 6 0 10 -9 10 -20z"/>
<path d="M710 295 l0 -65 45 0 c33 0 45 4 45 15 0 9 -9 15 -25 15 -23 0 -25 3
-25 50 0 43 -3 50 -20 50 -18 0 -20 -7 -20 -65z"/>
</g>
</svg>
